<svg width="397" height="90" viewBox="0 0 397 90" fill="none" xmlns="http://www.w3.org/2000/svg">
<path fill-rule="evenodd" clip-rule="evenodd" d="M14.5946 -0.00488281H24.8808L0 24.8759V14.5897C0 6.52934 6.53422 -0.00488281 14.5946 -0.00488281ZM0 61.1919V38.2737L25.2643 13.0095L63.159 50.9042L75.0011 39.0621L90 54.061V75.4005C90 75.9085 89.9741 76.4104 89.9234 76.9049L74.9999 61.9815L63.1578 73.8236L25.2631 35.9288L0 61.1919ZM0 74.5897V75.4005C0 83.4609 6.53422 89.9951 14.5946 89.9951H75.4054C79.3379 89.9951 82.9071 88.4398 85.5315 85.9108L74.9999 75.3793L63.1578 87.2214L25.2631 49.3266L0 74.5897ZM90 14.5897V40.6632L75.0011 25.6643L63.159 37.5064L25.6477 -0.00488281H75.4054C83.4658 -0.00488281 90 6.52934 90 14.5897Z" fill="white"/>
<path d="M138.385 71.5599C133.228 71.5599 128.655 70.4654 124.666 68.2762C120.725 66.087 117.66 62.9978 115.471 59.0086C113.282 54.9708 112.188 50.3005 112.188 44.9978C112.188 39.7437 113.306 35.1221 115.544 31.1329C117.831 27.0951 120.969 23.9816 124.958 21.7924C128.996 19.5545 133.569 18.4356 138.677 18.4356C143.59 18.4356 147.993 19.4329 151.885 21.4275L150.863 30.3302C148.771 29.4059 146.752 28.7005 144.806 28.214C142.909 27.6789 140.842 27.4113 138.604 27.4113C133.398 27.4113 129.385 29.0167 126.563 32.2275C123.79 35.4383 122.404 39.6951 122.404 44.9978C122.404 50.3005 123.766 54.5572 126.49 57.7681C129.263 60.9789 133.228 62.5843 138.385 62.5843C140.671 62.5843 142.763 62.341 144.66 61.8545C146.606 61.3681 148.674 60.6383 150.863 59.6654L151.885 68.5681C147.652 70.5627 143.152 71.5599 138.385 71.5599Z" fill="white"/>
<path d="M174.186 71.2681C170.343 71.2681 167.01 70.4167 164.189 68.714C161.367 67.0113 159.202 64.7248 157.694 61.8545C156.186 58.9843 155.432 55.8221 155.432 52.3681C155.432 48.914 156.186 45.7275 157.694 42.8086C159.202 39.8897 161.367 37.5789 164.189 35.8762C167.01 34.1735 170.343 33.3221 174.186 33.3221C178.029 33.3221 181.362 34.1735 184.183 35.8762C187.005 37.5789 189.17 39.8897 190.678 42.8086C192.186 45.7275 192.94 48.914 192.94 52.3681C192.94 55.8221 192.186 58.9843 190.678 61.8545C189.17 64.7248 187.005 67.0113 184.183 68.714C181.362 70.4167 178.029 71.2681 174.186 71.2681ZM174.186 63.8248C177.154 63.8248 179.464 62.7789 181.118 60.687C182.821 58.5951 183.673 55.8221 183.673 52.3681C183.673 48.8654 182.821 46.0681 181.118 43.9762C179.464 41.8356 177.154 40.7654 174.186 40.7654C171.218 40.7654 168.883 41.8356 167.181 43.9762C165.527 46.0681 164.7 48.8654 164.7 52.3681C164.7 55.8221 165.527 58.5951 167.181 60.687C168.883 62.7789 171.218 63.8248 174.186 63.8248Z" fill="white"/>
<path d="M234.617 71.2681C230.774 71.2681 227.441 70.4167 224.619 68.714C221.798 67.0113 219.633 64.7248 218.125 61.8545C216.617 58.9843 215.863 55.8221 215.863 52.3681C215.863 48.914 216.617 45.7275 218.125 42.8086C219.633 39.8897 221.798 37.5789 224.619 35.8762C227.441 34.1735 230.774 33.3221 234.617 33.3221C238.46 33.3221 241.792 34.1735 244.614 35.8762C247.436 37.5789 249.601 39.8897 251.109 42.8086C252.617 45.7275 253.371 48.914 253.371 52.3681C253.371 55.8221 252.617 58.9843 251.109 61.8545C249.601 64.7248 247.436 67.0113 244.614 68.714C241.792 70.4167 238.46 71.2681 234.617 71.2681ZM234.617 63.8248C237.584 63.8248 239.895 62.7789 241.549 60.687C243.252 58.5951 244.103 55.8221 244.103 52.3681C244.103 48.8654 243.252 46.0681 241.549 43.9762C239.895 41.8356 237.584 40.7654 234.617 40.7654C231.649 40.7654 229.314 41.8356 227.611 43.9762C225.957 46.0681 225.13 48.8654 225.13 52.3681C225.13 55.8221 225.957 58.5951 227.611 60.687C229.314 62.7789 231.649 63.8248 234.617 63.8248Z" fill="white"/>
<path d="M259.669 34.0518H268.134L268.353 37.9194C269.423 36.7032 270.785 35.6329 272.44 34.7086C274.142 33.7843 275.918 33.3221 277.767 33.3221C278.35 33.3221 278.885 33.3708 279.372 33.4681L278.715 42.3708C277.791 42.1275 276.745 42.0059 275.577 42.0059C274.069 42.0059 272.683 42.3708 271.418 43.1005C270.153 43.7816 269.253 44.6329 268.718 45.6545V70.5383H259.669V34.0518Z" fill="white"/>
<path d="M291.21 71.2681C288.193 71.2681 285.664 70.2951 283.62 68.3491C281.626 66.3545 280.628 63.6789 280.628 60.3221C280.628 57.1599 281.772 54.6302 284.058 52.7329C286.345 50.787 289.045 49.4248 292.158 48.6464C295.272 47.8194 298.264 47.3572 301.134 47.26C301.037 45.1194 300.477 43.587 299.456 42.6626C298.483 41.7383 296.853 41.2762 294.566 41.2762C292.961 41.2762 291.38 41.4951 289.823 41.9329C288.315 42.3708 286.564 43.0762 284.569 44.0491L283.766 36.6789C288.193 34.5383 292.62 33.4681 297.047 33.4681C301.328 33.4681 304.588 34.6356 306.826 36.9708C309.112 39.3059 310.255 43.0275 310.255 48.1356V57.987C310.255 59.8356 310.328 61.1735 310.474 62.0005C310.669 62.7789 310.961 63.2897 311.35 63.5329C311.788 63.7275 312.493 63.8248 313.466 63.8248H314.634L313.831 71.2681H310.547C308.553 71.2681 306.874 70.9032 305.512 70.1735C304.15 69.3951 303.104 68.3491 302.374 67.0356C301.207 68.3491 299.601 69.3951 297.558 70.1735C295.564 70.9032 293.447 71.2681 291.21 71.2681ZM295.004 64.3356C295.928 64.3356 296.974 64.1167 298.142 63.6789C299.31 63.1924 300.331 62.5356 301.207 61.7086V53.3897C298.288 53.5356 295.71 54.1681 293.472 55.287C291.234 56.4059 290.115 57.9627 290.115 59.9572C290.115 61.4654 290.504 62.5843 291.283 63.314C292.061 63.9951 293.301 64.3356 295.004 64.3356Z" fill="white"/>
<path d="M352.948 15.8086V70.5383H344.41L344.264 68.2032C342.854 69.2248 341.37 70.0032 339.813 70.5383C338.305 71.0248 336.505 71.2681 334.413 71.2681C330.862 71.2681 327.797 70.4167 325.218 68.714C322.689 67.0113 320.767 64.7248 319.454 61.8545C318.14 58.9843 317.483 55.8221 317.483 52.3681C317.483 48.914 318.14 45.7518 319.454 42.8816C320.767 40.0113 322.689 37.7248 325.218 36.0221C327.797 34.3194 330.862 33.4681 334.413 33.4681C337.964 33.4681 341.126 34.441 343.899 36.387V15.8086H352.948ZM335.727 63.8248C338.597 63.8248 340.737 62.8032 342.148 60.7599C343.608 58.7167 344.337 55.9194 344.337 52.3681C344.337 48.8167 343.608 46.0194 342.148 43.9762C340.737 41.9329 338.597 40.9113 335.727 40.9113C332.905 40.9113 330.691 41.9572 329.086 44.0491C327.529 46.141 326.751 48.914 326.751 52.3681C326.751 55.8221 327.529 58.5951 329.086 60.687C330.691 62.7789 332.905 63.8248 335.727 63.8248Z" fill="white"/>
<path d="M377.926 71.2681C374.083 71.2681 370.75 70.4167 367.929 68.714C365.107 67.0113 362.942 64.7248 361.434 61.8545C359.926 58.9843 359.172 55.8221 359.172 52.3681C359.172 48.914 359.926 45.7275 361.434 42.8086C362.942 39.8897 365.107 37.5789 367.929 35.8762C370.75 34.1735 374.083 33.3221 377.926 33.3221C381.769 33.3221 385.102 34.1735 387.923 35.8762C390.745 37.5789 392.91 39.8897 394.418 42.8086C395.926 45.7275 396.68 48.914 396.68 52.3681C396.68 55.8221 395.926 58.9843 394.418 61.8545C392.91 64.7248 390.745 67.0113 387.923 68.714C385.102 70.4167 381.769 71.2681 377.926 71.2681ZM377.926 63.8248C380.894 63.8248 383.204 62.7789 384.858 60.687C386.561 58.5951 387.412 55.8221 387.412 52.3681C387.412 48.8654 386.561 46.0681 384.858 43.9762C383.204 41.8356 380.894 40.7654 377.926 40.7654C374.958 40.7654 372.623 41.8356 370.921 43.9762C369.266 46.0681 368.439 48.8654 368.439 52.3681C368.439 55.8221 369.266 58.5951 370.921 60.687C372.623 62.7789 374.958 63.8248 377.926 63.8248Z" fill="white"/>
<rect x="199.46" y="14.5928" width="9.72973" height="55.9459" fill="white"/>
</svg>
